<svg xmlns="http://www.w3.org/2000/svg" viewBox="0 0 48 48"><rect width="48" height="48" fill="#0A0A0A"/><g transform="translate(10, 10)"><path fill="#fff" d="M6.871 12.218c0-.251.272-.406.488-.283l4.437 2.569v5.777a1.3 1.3 0 0 0 1.964 1.12l4.262-2.54v6.316l-4.275 2.475a2.593 2.593 0 0 1-2.596 0l-4.28-2.475V12.218Zm18.032 7.483a2.6 2.6 0 0 1-1.3 2.254l-4.277 2.475v-6.344l5.576-3.327V19.7Zm-19.33-1.724H5.57v6.45L1.3 21.954A2.604 2.604 0 0 1 0 19.7v-4.946l5.574 3.222ZM23.6 6.05a2.604 2.604 0 0 1 1.3 2.253v4.942l-11.314 6.747a.324.324 0 0 1-.49-.28v-5.2l5.418-3.138a.977.977 0 0 0 .007-1.689l-4.836-2.848 5.637-3.263L23.6 6.05Zm-6.698 4.194a.324.324 0 0 1 0 .561l-4.449 2.575-5.414-3.133a.978.978 0 0 0-1.465.844v5.384L0 13.253v-4.95c0-.929.495-1.789 1.299-2.253l4.278-2.48 11.325 6.674Zm-3.217-3.407-.003.002v-.003l.003.001ZM11.15.348a2.593 2.593 0 0 1 2.596 0l4.275 2.472-5.627 3.256L6.87 2.823 11.15.348Z"/></g></svg>
