<svg xmlns="http://www.w3.org/2000/svg" viewBox="0 0 48 48"><defs><linearGradient id="modalFace" x1="8" y1="40" x2="36" y2="12" gradientUnits="userSpaceOnUse"><stop offset="0" stop-color="#80EE64"/><stop offset="1" stop-color="#09AF58"/></linearGradient><linearGradient id="modalTop" x1="36" y1="38" x2="14" y2="12" gradientUnits="userSpaceOnUse"><stop offset="0" stop-color="#BFF9B4"/><stop offset="1" stop-color="#80EE64"/></linearGradient></defs><rect width="48" height="48" fill="#0A0A0A"/><g transform="translate(9.15 6) scale(0.232)"><path d="M7.10938 110.276L14.2205 106.132V56.6339L7.10938 52.5131V110.276Z" fill="#059345"/><path d="M127.36 40.4843L64 77.2621V150.794C64.8296 150.794 65.6356 150.58 66.3704 150.151L125.63 115.755C127.099 114.897 128 113.325 128 111.634V42.8424C128 42.0087 127.763 41.1988 127.36 40.4843ZM120.889 110.276L71.1111 139.146V81.383L120.889 52.5133V110.276Z" fill="#059345"/><path d="M63.9965 11.2329L14.2188 40.1264L21.3299 44.2472L63.9965 19.4984V11.2329Z" fill="#059345"/><path d="M0 42.8664V111.634C0 113.326 0.900741 114.898 2.37037 115.755L61.6296 150.151C62.3644 150.58 63.1704 150.794 64 150.794V77.2623L0.64 40.4844C0.237037 41.199 0 42.0327 0 42.8664ZM7.11111 52.5134L56.8889 81.3831V139.146L7.11111 110.277V52.5134ZM120.889 52.5134V110.277L113.778 106.156V56.6581L120.889 52.5373V52.5134ZM113.778 40.1271L106.667 44.248L64 19.4991V11.2574L113.778 40.1271Z" fill="url(#modalFace)"/><path d="M14.2228 106.133L56.8895 130.881V139.123L7.11174 110.277L14.2228 106.156V106.133ZM71.1117 130.905V139.147L120.89 110.277L113.778 106.156L71.1117 130.905ZM127.361 40.4851L64.0006 77.2392L0.640625 40.4851C1.04359 39.7705 1.63618 39.175 2.371 38.7463L61.6303 4.37422C63.0999 3.5167 64.9014 3.5167 66.371 4.37422L125.63 38.7463C126.365 39.175 126.958 39.7705 127.361 40.4851ZM113.778 40.1278L64.0006 11.2343L14.2228 40.1278L64.0006 68.9975L113.778 40.1278Z" fill="url(#modalTop)"/></g></svg>
